# xmcd
#
# Track frame offsets:
#	150
#	11100
#	23743
#	37265
#	51881
#	64204
#	77802
#	89777
#	98615
#	111744
#	127593
#	141209
#	148256
#	163575
#
# Disc length: 2349 seconds
#
# Revision: 1
# Processed by: cddbd v1.5.2PL0 Copyright (c) Steve Scherf et al.
# Submitted via: audiograbber 1.83.01
#
DISCID=ca092b0e
DTITLE=Frankenfeuer - Jodeln is mei freud
DYEAR=2003
DGENRE=Folklore
TTITLE0=Jodeln is mei freud
TTITLE1=Heut' geh i zur Herzeralm
TTITLE2=Auf geht's in den Hasenstall
TTITLE3=Alpen Reggae
TTITLE4=Es muss ein Walzer sein
TTITLE5=Franken-Jodelmann
TTITLE6=Mein Zuhaus
TTITLE7=Bewgrüßungsjodler
TTITLE8=Des könnt no lustig werden
TTITLE9=Wenn i zur Maria auf die Alma geh
TTITLE10=Wo ich auch bin
TTITLE11=Appenzeller
TTITLE12=Dann mach an Jodler
TTITLE13=Königsjodler
EXTD=
EXTT0=
EXTT1=
EXTT2=
EXTT3=
EXTT4=
EXTT5=
EXTT6=
EXTT7=
EXTT8=
EXTT9=
EXTT10=
EXTT11=
EXTT12=
EXTT13=
PLAYORDER=
